Patient4_TMGait_0pt3_01_right_01_EMG.mot
version=1
nRows=19
nColumns=33
inDegrees=no
endheader
time	1LAddLong	2LGlutMax	3LGlutMed	4LIliopsoas	5LSemiMemb	6LBicFemLong	7LRecFem	8LVastMed	9LVastLat	10LGasMed	11LTibAnt	12lTibPost	13LPeroneusLong	14LSol	15LExtDigLong	16LFlexDigLong	17RAddLong	18RGlutMax	19RGlutMed	20RIliopsoas	21RSemiMemb	22RBicFemLong	23RRecFem	24RVastMed	25RVastLat	26RGasMed	27RTibAnt	28RTibPost	29RPeroneusLong	30RSol	31RExtDigLong	32RFlexDigLong
0.995	0.007019	-0.002136	-0.11307	0.00061	0.002747	0.019836	0.0737	-0.01297	0.075531	0.014801	0.002899	0.012665	-0.026245	-0.2034	0.010071	0.000305	0.010986	0.18173	-0.32089	-0.027618	-0.061951	0.077515	-0.18082	0.07843	0.07019	0.00473	0.031433	0.000305	0.47272	-0.089569	0.000305	-0.01236
0.996	0.003204	0.032196	-0.094452	0.010223	0.004272	0.000305	0.083923	-0.01297	0.094604	-0.005188	0.00412	0.007477	-0.044556	-0.16357	0.01236	0.009003	0.012054	0.10773	-0.45929	0.033417	-0.091553	-0.098877	-0.076752	0.12314	-0.63904	-0.035858	0.020294	-0.000153	0.005951	-0.085297	0.004883	-0.016785
0.997	-0.000153	0.009003	-0.086365	0.031738	0.000305	-0.00351	0.092468	-0.00061	0.078735	-0.00946	0.001221	0.003662	-0.054779	-0.11963	0.021515	-0.001831	0.012207	0.1265	-0.027924	0.050354	-0.10559	-0.12894	0.21423	0.075378	-1.1392	-0.044861	-0.030212	-0.001221	-0.045471	-0.02594	0.009613	-0.013428
0.998	0.004425	0.067596	-0.091553	0.045319	-0.001373	0.014038	0.040894	-0.046082	0.068512	-0.018158	0.001984	-0.000458	-0.067444	-0.010071	0.015411	0.007782	0.054779	0.25818	0.66818	-0.024109	-0.10803	-0.10544	0.093689	0.040283	-0.90179	-0.028839	0.015259	-0.002899	-0.022736	-0.032959	-0.001831	-0.012665
0.999	0.001373	0.057068	-0.084229	0.02533	0.002441	0.013275	0.025024	0.009308	0.076904	-0.00946	-0.001526	0.006104	-0.060577	0.046997	0.003662	0.007782	0.034027	0.27481	0.41672	0.021515	-0.024109	-0.082397	-0.20691	0.064392	-0.44434	-0.018463	0.003662	-0.002594	-0.27634	-0.053558	0.001068	-0.010376
1	-0.002594	0.065765	-0.062866	-0.002441	0.005646	0.010834	-0.005188	-0.001984	0.076141	-0.002747	0.001984	0.005188	-0.052032	0.058136	0.001373	-0.007324	0.04715	0.22232	0.016174	-0.001221	0.16174	-0.1062	-0.15854	-0.002594	-0.20721	-0.019836	-0.02655	-0.002594	0.23483	-0.064087	-0.003815	-0.007629
1.001	-0.002747	0.072174	-0.0383	-0.013428	0.003357	0.016632	-0.034943	-0.026398	0.075836	0.001221	0.011444	0.005646	-0.05249	0.045013	-0.002289	0.009918	0.030975	0.17746	0.038147	-0.032959	0.15182	-0.12451	-0.071106	-0.084534	-0.1593	-0.026398	-0.007782	-0.007935	0.22858	0.030212	-0.003967	-0.00885
1.002	0.001678	0.081482	-0.05661	0.002441	0.000153	0.007935	-0.04303	-0.018158	0.071716	-0.015717	0.007477	0.005493	-0.053864	-0.001221	-0.014343	0.016022	0.021667	0.17029	-0.03952	-0.039978	0.026398	-0.021057	0.020294	-0.086212	-0.11917	0.01358	-0.006409	-0.008087	0.24765	0.021515	-0.002899	-0.004272
1.003	-0.003967	0.11078	-0.05249	0.013733	0.000458	0.007019	-0.034943	-0.019379	0.066376	-0.018311	0.006104	0.00946	-0.045166	-0.013275	-0.00061	0.006561	-0.003052	0.088196	-0.21255	-0.009003	-0.13397	0.039978	0.009003	-0.027008	-0.045013	0.027924	0.037537	-0.005188	0.11139	-0.10941	-0.002594	-0.010376
1.004	-0.004578	0.10437	-0.042725	0.002747	-0.007935	0.000763	-0.007935	-0.018005	0.050049	-0.024414	0.014496	0.004578	-0.068359	0.03006	0.014496	0.012207	-0.054016	0.018921	-0.16464	-0.015564	-0.010223	-0.079041	-0.07843	0.09964	0.075073	0.016937	0.13397	-0.001221	-0.2623	-0.2092	-0.00412	-0.007172
1.005	-0.000305	0.10956	-0.024414	0.00824	-0.002899	0.00412	0.028229	-0.011292	0.031738	-0.021973	0.016022	0.005493	-0.085297	0.052643	0.013733	0.016174	-0.047302	-0.006409	0.19318	-0.019531	-0.052338	-0.20004	-0.084076	0.089722	0.13397	0.020447	0.057526	-0.000458	-1.2051	-0.18829	0.001373	-0.009766
1.006	-0.00061	0.11414	-0.036621	0.020752	-0.001831	0.000916	0.03479	-0.015717	0.034637	-0.034027	0.016632	0.005646	-0.070038	0.082397	0.005798	0.00885	-0.024872	-0.043488	0.1384	-0.0177	-0.13428	-0.32684	-0.042267	0.097961	0.097809	0.011597	-0.034943	-0.002136	-2.5681	-0.027618	-0.003052	-0.006561
1.007	-0.002747	0.10986	-0.078278	-0.000458	-0.00412	-0.002136	0.066681	-0.016937	0.04303	-0.036316	-0.010986	0.014496	-0.049896	0.060883	-0.004578	-0.013428	0.020599	-0.075378	0.18539	-0.005646	-0.054016	-0.21301	0.029449	-0.067139	0.058899	0.007324	0.002441	-0.003052	-1.6519	-0.084229	-0.004272	-0.003967
1.008	0.002289	0.10971	-0.097961	0.005493	0.002594	-0.003662	0.061035	-0.015259	0.031128	-0.027466	-0.005798	-0.006256	-0.024414	0.06897	-0.002136	-0.87845	0.037537	-0.11871	0.16937	-0.032959	0.07309	-0.097046	0.035706	-0.112	0.053558	0.018921	-0.063629	0.00061	2.2858	-0.12772	-0.001068	-0.002899
1.009	-0.000305	0.13367	-0.077972	0.007629	0.007172	0.000763	0.009155	-0.012512	0.044403	-0.014954	-0.009918	0.000305	-0.030518	0.053864	-0.002747	0.76324	0.02182	-0.15106	0.041656	0.023804	0.037384	0.050964	-0.020294	-0.013428	0.079803	0.022736	-0.1207	-0.006409	2.0264	-0.17792	0.002747	-0.005798
1.01	-0.002441	0.13458	-0.062714	0.005798	0.000916	-0.00824	-0.001068	-0.020447	0.045776	-0.005188	0.003357	-0.003662	-0.028381	-0.000763	-0.000458	0.097809	-0.012054	-0.15961	0.13489	0.11032	-0.0177	0.1329	-0.002289	0.011902	0.075073	0.020752	-0.068665	-0.002441	0.15503	-0.11215	-0.004272	-0.013123
1.011	-0.002136	0.121	-0.077667	0.012207	0.002899	-0.000458	0.033875	-0.023346	0.030212	-0.014343	-0.000153	0.003815	-0.031281	-0.037079	-0.009003	-0.020142	-0.03479	-0.25589	0.13489	0.087585	-0.00061	0.25314	-0.050812	0.055237	0.091095	0.018005	0.016479	-0.00351	-0.87204	-0.047607	-0.002136	-0.016937
1.012	0.011292	0.12802	-0.054474	0.00351	0.004425	0.006561	0.032043	-0.016785	0.028229	-0.005035	-0.001526	0.007629	-0.030518	-0.049133	-0.003967	-0.24887	-0.0354	-0.33493	0.16419	0.079498	-0.039063	0.13977	-0.02594	0.1091	0.074463	0.007019	-0.029144	0.000458	1.0034	0.050812	-0.001831	-0.019226
1.013	0.004883	0.15442	-0.037842	-0.005951	0.001526	0.007782	0.049133	-0.016937	0.023956	-0.005798	-0.000153	0.002594	-0.025787	-0.076904	-0.000458	0.38971	-0.020447	-0.36835	0.2214	0.043793	-0.096741	0.089722	-0.024109	0.057068	0.095673	-0.037231	-0.085297	-0.003357	1.9147	0.12253	-0.002136	-0.0177
